HIERARCHY
ROOT Hips
{
	OFFSET 0.000000 0.000000 0.000000
	CHANNELS 6 Xposition Yposition Zposition Xrotation Yrotation Zrotation
	JOINT LeftUpLeg_virtual
	{
		OFFSET 0.000000 0.000000 0.000000
		CHANNELS 3 Xrotation Yrotation Zrotation
		JOINT LeftUpLeg
		{
			OFFSET 15.427100 -6.655098 0.678600
			CHANNELS 3 Xrotation Yrotation Zrotation
			JOINT LeftLeg
			{
				OFFSET 4.081073 -39.591068 13.024000
				CHANNELS 3 Xrotation Yrotation Zrotation
				JOINT LeftFoot
				{
					OFFSET -4.081074 -37.707932 -15.979700
					CHANNELS 3 Xrotation Yrotation Zrotation
					JOINT LeftToeBase
					{
						OFFSET 5.346399 -15.068900 20.645000
						CHANNELS 3 Xrotation Yrotation Zrotation
						JOINT LeftToe_End
						{
							OFFSET 2.754700 0.931300 11.300900
							CHANNELS 3 Xrotation Yrotation Zrotation
							End Site
							{
								OFFSET 0 0 0
							}
						}
					}
				}
			}
		}
	}
	JOINT RightUpLeg_virtual
	{
		OFFSET 0.000000 0.000000 0.000000
		CHANNELS 3 Xrotation Yrotation Zrotation
		JOINT RightUpLeg
		{
			OFFSET -15.569500 -6.655098 0.678600
			CHANNELS 3 Xrotation Yrotation Zrotation
			JOINT RightLeg
			{
				OFFSET -4.081825 -39.591045 13.023800
				CHANNELS 3 Xrotation Yrotation Zrotation
				JOINT RightFoot
				{
					OFFSET 4.081824 -37.707954 -15.979600
					CHANNELS 3 Xrotation Yrotation Zrotation
					JOINT RightToeBase
					{
						OFFSET -5.346400 -15.068900 20.645000
						CHANNELS 3 Xrotation Yrotation Zrotation
						JOINT RightToe_End
						{
							OFFSET -2.754700 0.931300 11.300900
							CHANNELS 3 Xrotation Yrotation Zrotation
							End Site
							{
								OFFSET 0 0 0
							}
						}
					}
				}
			}
		}
	}
	JOINT Spine_virtual
	{
		OFFSET 0.000000 0.000000 0.000000
		CHANNELS 3 Xrotation Yrotation Zrotation
		JOINT Spine
		{
			OFFSET -0.279200 12.230698 -2.892100
			CHANNELS 3 Xrotation Yrotation Zrotation
			JOINT Spine1
			{
				OFFSET -0.232667 10.192268 -1.242267
				CHANNELS 3 Xrotation Yrotation Zrotation
				JOINT Spine1_split
				{
					OFFSET -0.232667 10.192268 -1.242267
					CHANNELS 3 Xrotation Yrotation Zrotation
					JOINT Spine2
					{
						OFFSET -0.232667 10.192268 -1.242267
						CHANNELS 3 Xrotation Yrotation Zrotation
						JOINT Neck_virtual
						{
							OFFSET 0.000000 0.000000 0.000000
							CHANNELS 3 Xrotation Yrotation Zrotation
							JOINT Neck
							{
								OFFSET -0.418800 17.814194 8.416900
								CHANNELS 3 Xrotation Yrotation Zrotation
								JOINT Head
								{
									OFFSET 0.000000 7.031097 3.806800
									CHANNELS 3 Xrotation Yrotation Zrotation
									JOINT HeadTop_End
									{
										OFFSET 0.000000 24.646606 12.978600
										CHANNELS 3 Xrotation Yrotation Zrotation
										End Site
										{
											OFFSET 0 0 0
										}
									}
								}
							}
						}
						JOINT LeftShoulder_virtual
						{
							OFFSET 0.000000 0.000000 0.000000
							CHANNELS 3 Xrotation Yrotation Zrotation
							JOINT LeftShoulder
							{
								OFFSET 8.476499 7.247704 -3.868750
								CHANNELS 3 Xrotation Yrotation Zrotation
								JOINT LeftShoulder_split
								{
									OFFSET 8.476499 7.247704 -3.868750
									CHANNELS 3 Xrotation Yrotation Zrotation
									JOINT LeftArm
									{
										OFFSET 9.308998 -2.777710 0.208600
										CHANNELS 3 Xrotation Yrotation Zrotation
										JOINT LeftForeArm
										{
											OFFSET 29.972298 0.000000 0.000000
											CHANNELS 3 Xrotation Yrotation Zrotation
											JOINT LeftHand
											{
												OFFSET 26.026505 0.000000 0.000000
												CHANNELS 3 Xrotation Yrotation Zrotation
												End Site
												{
													OFFSET 0 0 0
												}
											}
										}
									}
								}
							}
						}
						JOINT RightShoulder_virtual
						{
							OFFSET 0.000000 0.000000 0.000000
							CHANNELS 3 Xrotation Yrotation Zrotation
							JOINT RightShoulder
							{
								OFFSET -7.570500 7.247704 -3.868750
								CHANNELS 3 Xrotation Yrotation Zrotation
								JOINT RightShoulder_split
								{
									OFFSET -7.570500 7.247704 -3.868750
									CHANNELS 3 Xrotation Yrotation Zrotation
									JOINT RightArm
									{
										OFFSET -9.308998 -2.777710 0.208500
										CHANNELS 3 Xrotation Yrotation Zrotation
										JOINT RightForeArm
										{
											OFFSET -29.972300 0.000000 0.000000
											CHANNELS 3 Xrotation Yrotation Zrotation
											JOINT RightHand
											{
												OFFSET -26.026505 0.000000 0.000000
												CHANNELS 3 Xrotation Yrotation Zrotation
												End Site
												{
													OFFSET 0 0 0
												}
											}
										}
									}
								}
							}
						}
					}
				}
			}
		}
	}
}
MOTION
Frames: 11
Frame Time: 0.03333333
4.107190 72.008339 -1.515305 0.000000 0.000000 0.000000 -4.588802 -43.998672 15.719716 -21.625303 30.429811 0.951987 56.400260 1.342756 3.496646 -22.333906 20.403512 -9.486967 -0.000043 0.000002 -0.000003 0.000000 0.000000 0.000000 -4.588802 -43.998672 15.719716 -33.278543 10.080796 -38.526304 66.838524 6.315092 -8.559072 -26.473344 -7.996797 22.276541 -1.318687 0.000002 0.000005 0.000000 0.000000 0.000000 -4.588802 -43.998672 15.719716 0.358665 -2.381550 8.017209 -0.023338 -1.710604 5.081367 0.000000 0.000000 0.000000 0.000000 0.000000 0.000000 -0.126059 -1.589356 5.080999 -11.640982 3.400663 8.933793 -20.262741 31.163616 -6.415763 0.000000 0.000000 0.000000 -0.126059 -1.589356 5.080999 -0.465250 1.737095 14.489032 0.000000 0.000000 0.000000 -35.122527 -32.435732 -48.626664 -0.000072 -84.342338 -0.000055 0.000000 0.000000 0.000000 -0.126059 -1.589356 5.080999 -0.021955 -5.785196 7.001688 0.000000 0.000000 0.000000 119.104265 72.367821 -83.651144 -0.000005 26.658735 0.000008 0.000000 0.000000 0.000000 
4.784521 72.478317 -1.182945 0.000000 0.000000 0.000000 -3.095329 -42.928238 16.792339 -22.474666 28.979765 -0.205108 55.672851 1.569610 2.373374 -22.217571 20.770358 -8.371496 -0.000043 0.000003 -0.000003 0.000000 0.000000 0.000000 -3.095329 -42.928238 16.792339 -34.266461 10.316008 -38.266435 66.045628 6.196483 -8.517939 -25.493917 -8.409084 22.387379 -1.795055 0.000005 0.000002 0.000000 0.000000 0.000000 -3.095329 -42.928238 16.792339 0.376594 -1.913413 8.040676 0.027302 -1.386082 5.062934 0.000000 0.000000 0.000000 0.000000 0.000000 0.000000 -0.080031 -1.272387 5.054162 -11.424517 3.372347 7.860921 -19.486309 29.446264 -6.823210 0.000000 0.000000 0.000000 -0.080031 -1.272387 5.054162 -0.548179 2.093936 14.135920 0.000000 0.000000 0.000000 -33.452033 -33.142011 -47.500732 0.001778 -87.864387 0.001848 0.000000 0.000000 0.000000 -0.080031 -1.272387 5.054162 -0.011248 -5.892456 7.391184 0.000000 0.000000 0.000000 118.821154 72.028149 -83.805895 -0.000008 25.801461 0.000011 0.000000 0.000000 0.000000 
5.494259 73.420708 -0.898453 0.000000 0.000000 0.000000 -1.368666 -42.033432 17.994975 -23.061710 27.984755 -1.369663 54.040679 2.001344 1.360866 -21.618578 20.739398 -7.360199 -0.000043 0.000003 -0.000003 0.000000 0.000000 0.000000 -1.368666 -42.033432 17.994975 -36.195396 10.123853 -37.636825 64.761361 5.643617 -8.600526 -24.105816 -7.197874 22.167562 -2.520435 -0.000008 0.000002 0.000000 0.000000 0.000000 -1.368666 -42.033432 17.994975 0.469266 -1.345573 7.976817 0.140025 -0.990045 5.027510 0.000000 0.000000 0.000000 0.000000 0.000000 0.000000 0.034601 -0.892060 5.011684 -11.378204 3.392049 6.943747 -18.730011 28.242385 -7.478144 0.000000 0.000000 0.000000 0.034601 -0.892060 5.011684 -0.713347 2.845085 13.378911 0.000000 0.000000 0.000000 -31.471739 -33.569444 -46.626225 -179.991262 -89.203281 -179.991180 0.000000 0.000000 0.000000 0.034601 -0.892060 5.011684 0.007039 -5.858266 7.548147 0.000000 0.000000 0.000000 118.019590 71.112501 -83.953407 -0.000018 25.056457 0.000012 0.000000 0.000000 0.000000 
6.169241 74.815880 -0.693607 0.000000 0.000000 0.000000 0.429677 -41.175751 19.176719 -23.346524 27.908646 -2.538322 51.553831 2.499392 0.957804 -20.491884 20.074884 -6.516418 -0.000043 0.000003 -0.000003 0.000000 0.000000 0.000000 0.429677 -41.175751 19.176719 -38.634859 9.134352 -36.913955 62.841244 4.997367 -8.791724 -22.330889 -5.063419 21.568849 -3.275579 -0.000021 -0.000017 0.000000 0.000000 0.000000 0.429677 -41.175751 19.176719 0.577513 -0.800383 7.801907 0.248647 -0.611694 4.969980 0.000000 0.000000 0.000000 0.000000 0.000000 0.000000 0.148292 -0.527149 4.950959 -11.272899 3.482785 6.354423 -18.308206 27.862787 -8.161819 0.000000 0.000000 0.000000 0.148292 -0.527149 4.950959 -0.900983 3.730487 12.504820 0.000000 0.000000 0.000000 -29.630006 -34.106382 -46.030144 179.999158 -87.986470 179.999158 0.000000 0.000000 0.000000 0.148292 -0.527149 4.950959 0.026407 -5.749827 7.553609 0.000000 0.000000 0.000000 117.949663 69.470148 -85.203905 0.000017 24.027685 -0.000027 0.000000 0.000000 0.000000 
6.739269 76.300110 -0.558228 0.000000 0.000000 0.000000 1.833747 -40.142231 19.913741 -23.416228 28.261252 -3.540152 48.899845 2.868239 1.029398 -19.175831 18.990634 -5.795798 -0.000043 0.000003 -0.000003 0.000000 0.000000 0.000000 1.833747 -40.142231 19.913741 -40.972508 7.536579 -36.116066 60.714323 4.568007 -9.020802 -20.344272 -3.084874 20.625681 -3.578023 -0.000004 -0.000012 0.000000 0.000000 0.000000 1.833747 -40.142231 19.913741 0.722498 -0.347359 7.599518 0.373153 -0.294160 4.904668 0.000000 0.000000 0.000000 0.000000 0.000000 0.000000 0.278833 -0.218174 4.885692 -11.068356 3.540293 6.038589 -18.046847 27.713566 -8.655213 0.000000 0.000000 0.000000 0.278833 -0.218174 4.885692 -0.992068 4.206203 11.860323 0.000000 0.000000 0.000000 -28.353297 -34.505173 -45.620777 179.991413 -88.778744 179.991413 0.000000 0.000000 0.000000 0.278833 -0.218174 4.885692 0.044092 -5.617865 7.488467 0.000000 0.000000 0.000000 118.954534 67.350761 -87.725461 -0.000006 22.292426 0.000006 0.000000 0.000000 0.000000 
7.189504 77.487679 -0.463058 0.000000 0.000000 0.000000 2.559012 -38.926901 19.916815 -23.512783 28.368267 -4.056234 46.866829 3.046033 1.115097 -18.108293 17.846955 -5.118132 -0.000043 0.000003 -0.000003 0.000000 0.000000 0.000000 2.559012 -38.926901 19.916815 -42.732870 5.723446 -35.296703 58.872310 4.434621 -9.210685 -18.445570 -1.901848 19.595405 -3.294037 -0.000046 -0.000001 0.000000 0.000000 0.000000 2.559012 -38.926901 19.916815 0.976307 0.047612 7.428535 0.586331 -0.013878 4.828196 0.000000 0.000000 0.000000 0.000000 0.000000 0.000000 0.499178 0.055758 4.811659 -10.782260 3.465069 5.897541 -17.619453 27.180214 -9.096437 0.000000 0.000000 0.000000 0.499178 0.055758 4.811659 -0.979583 4.192206 11.552913 0.000000 0.000000 0.000000 -27.662411 -34.121801 -45.203213 179.932372 -89.882967 179.932058 0.000000 0.000000 0.000000 0.499178 0.055758 4.811659 0.059273 -5.513790 7.461368 0.000000 0.000000 0.000000 120.496968 65.501145 -90.867799 -0.000021 19.982839 0.000012 0.000000 0.000000 0.000000 
7.530292 78.323647 -0.386330 0.000000 0.000000 0.000000 2.687675 -37.601653 19.241128 -23.750750 28.063818 -4.000231 45.621142 3.129170 1.065405 -17.389805 16.736678 -4.500454 -0.000043 0.000003 -0.000003 0.000000 0.000000 0.000000 2.687675 -37.601653 19.241128 -43.879669 3.783786 -34.478699 57.423285 4.559525 -9.358215 -16.864097 -1.288741 18.588572 -2.547153 -0.000006 -0.000000 0.000000 0.000000 0.000000 2.687675 -37.601653 19.241128 1.321304 0.382742 7.251711 0.879415 0.220161 4.725276 0.000000 0.000000 0.000000 0.000000 0.000000 0.000000 0.801720 0.284946 4.713324 -10.323301 3.263865 5.921957 -17.096901 26.275413 -9.518696 0.000000 0.000000 0.000000 0.801720 0.284946 4.713324 -0.946782 4.021464 11.528751 0.000000 0.000000 0.000000 -27.264643 -32.676609 -44.572186 179.990538 -89.443274 179.990579 0.000000 0.000000 0.000000 0.801720 0.284946 4.713324 0.073535 -5.453141 7.529757 0.000000 0.000000 0.000000 122.381253 64.637994 -94.376917 0.000001 17.682788 0.000008 0.000000 0.000000 0.000000 
7.755216 78.948441 -0.326706 0.000000 0.000000 0.000000 2.454644 -36.128757 18.167506 -24.080592 27.448468 -3.630825 44.866362 3.234822 1.032308 -16.839959 15.597405 -4.036474 -0.000043 0.000002 -0.000003 0.000000 0.000000 0.000000 2.454644 -36.128757 18.167506 -44.595145 1.709473 -33.810324 56.182800 4.749026 -9.464608 -15.597067 -0.660066 17.694966 -1.684663 -0.000019 0.000009 0.000000 0.000000 0.000000 2.454644 -36.128757 18.167506 1.672855 0.595805 6.989547 1.171748 0.365970 4.585487 0.000000 0.000000 0.000000 0.000000 0.000000 0.000000 1.106520 0.429071 4.579236 -9.729418 3.011561 6.112315 -16.698335 25.348101 -9.819004 0.000000 0.000000 0.000000 1.106520 0.429071 4.579236 -0.941626 3.903460 11.741817 0.000000 0.000000 0.000000 -28.523966 -31.463686 -45.019648 -0.009316 -89.340910 -0.009260 0.000000 0.000000 0.000000 1.106520 0.429071 4.579236 0.088318 -5.382636 7.578418 0.000000 0.000000 0.000000 124.868426 64.836650 -98.542206 0.000004 15.709662 -0.000010 0.000000 0.000000 0.000000 
7.852136 79.475021 -0.282772 0.000000 0.000000 0.000000 2.080253 -34.481821 16.994281 -24.438576 26.721916 -3.280773 44.321432 3.392514 1.265698 -16.297921 14.415714 -3.811850 -0.000043 0.000003 -0.000003 0.000000 0.000000 0.000000 2.080253 -34.481821 16.994281 -45.057354 -0.403253 -33.347319 55.042288 4.894148 -9.515530 -14.581535 0.198964 16.904879 -0.908885 0.000022 0.000001 0.000000 0.000000 0.000000 2.080253 -34.481821 16.994281 1.979795 0.685142 6.621568 1.408515 0.433127 4.419415 0.000000 0.000000 0.000000 0.000000 0.000000 0.000000 1.356784 0.498286 4.418367 -9.217835 2.771435 6.310864 -16.359299 24.522201 -10.120669 0.000000 0.000000 0.000000 1.356784 0.498286 4.418367 -0.954699 3.865317 11.963601 0.000000 0.000000 0.000000 -30.603680 -30.933203 -46.141688 -0.000369 -86.814450 -0.000368 0.000000 0.000000 0.000000 1.356784 0.498286 4.418367 0.109436 -5.162218 7.329389 0.000000 0.000000 0.000000 127.355653 65.788505 -102.890919 -0.000004 14.716476 -0.000004 0.000000 0.000000 0.000000 
7.825382 79.935265 -0.251457 0.000000 0.000000 0.000000 1.689054 -32.777531 15.850251 -24.823648 26.148276 -3.051750 43.906157 3.475617 1.921306 -15.755858 13.285185 -3.808365 -0.000043 0.000003 -0.000003 0.000000 0.000000 0.000000 1.689054 -32.777531 15.850251 -45.335787 -2.424646 -32.853247 54.028559 5.156333 -9.593302 -13.747923 0.900794 16.128964 -0.411101 0.000017 -0.000007 0.000000 0.000000 0.000000 1.689054 -32.777531 15.850251 2.223456 0.743349 6.176162 1.586166 0.495598 4.234189 0.000000 0.000000 0.000000 0.000000 0.000000 0.000000 1.546539 0.562952 4.236077 -8.833023 2.596962 6.309701 -15.884435 23.696972 -10.565469 0.000000 0.000000 0.000000 1.546539 0.562952 4.236077 -0.953556 3.851066 11.905961 0.000000 0.000000 0.000000 -32.569986 -31.373839 -47.172254 0.000030 -83.626528 0.000030 0.000000 0.000000 0.000000 1.546539 0.562952 4.236077 0.134627 -4.754170 6.610376 0.000000 0.000000 0.000000 129.423807 67.062991 -107.024959 -0.000006 14.459789 -0.000004 0.000000 0.000000 0.000000 
7.694826 80.325897 -0.235237 0.000000 0.000000 0.000000 1.285575 -31.106573 14.699479 -25.252331 25.753928 -2.798968 43.635989 3.317092 2.799079 -15.267717 12.311092 -3.860515 -0.000043 0.000002 -0.000003 0.000000 0.000000 0.000000 1.285575 -31.106573 14.699479 -45.418299 -4.382087 -32.089827 53.209397 5.851637 -9.790938 -13.032737 0.820938 15.238932 -0.303961 0.000009 0.000001 0.000000 0.000000 0.000000 1.285575 -31.106573 14.699479 2.398279 0.849176 5.633222 1.722922 0.610908 3.990664 0.000000 0.000000 0.000000 0.000000 0.000000 0.000000 1.693402 0.675485 3.992376 -8.448342 2.460607 6.084880 -15.215935 22.760299 -11.014943 0.000000 0.000000 0.000000 1.693402 0.675485 3.992376 -0.910233 3.728660 11.662218 0.000000 0.000000 0.000000 -33.908194 -33.231005 -47.728037 0.000002 -79.496271 0.000002 0.000000 0.000000 0.000000 1.693402 0.675485 3.992376 0.157430 -4.307522 5.670000 0.000000 0.000000 0.000000 131.136190 69.461733 -110.840105 -0.000004 14.961975 0.000005 0.000000 0.000000 0.000000 
